<svg xmlns="http://www.w3.org/2000/svg" width="60" height="60" viewBox="0 0 60 60">
    <defs>
        <linearGradient id="a" x1="50%" x2="50%" y1="100%" y2="0%">
            <stop offset="0%" stop-color="#ECF1FF"/>
            <stop offset="100%" stop-color="#BDCBF6"/>
        </linearGradient>
    </defs>
    <g fill="none" fill-rule="evenodd" transform="translate(2 18)">
        <rect width="35" height="35" x="6" fill="url(#a)" opacity=".8" rx="17.5"/>
        <path fill="#000" d="M7.038 19.863l-5.26 5.53v-6.21l6.824-7.144 9.126 9.125-3.603 3.602-4.93-4.93a1.494 1.494 0 0 0-1.065-.441h-.02c-.408.005-.79.172-1.072.468m29.073-9.19c.49 0 .889-.399.889-.888V4.06A1.06 1.06 0 0 0 35.941 3h-5.8c-.49 0-.889.4-.889.889 0 .49.4.89.89.89h3.972L18.986 19.906 9.678 10.6a1.516 1.516 0 0 0-1.079-.447h-.018a1.517 1.517 0 0 0-1.086.472L1.779 16.61V3.889a.89.89 0 0 0-1.779 0V40h36.111a.89.89 0 0 0 0-1.779H1.78V27.974l6.356-6.684 5.07 5.071a1.304 1.304 0 0 0 1.841 0l3.94-3.939 6.878 6.878a1.303 1.303 0 0 0 1.84 0l7.518-7.52v3.6a.89.89 0 0 0 1.778 0v-5.724a1.06 1.06 0 0 0-1.059-1.06h-5.8a.89.89 0 0 0 0 1.778h3.973l-7.33 7.33-6.54-6.54L35.221 6.185v3.6c0 .49.4.888.89.888"/>
    </g>
</svg>
