<svg xmlns="http://www.w3.org/2000/svg" width="60" height="60" viewBox="0 0 60 60">
    <defs>
        <linearGradient id="a" x1="50%" x2="50%" y1="100%" y2="0%">
            <stop offset="0%" stop-color="#ECF1FF"/>
            <stop offset="100%" stop-color="#BDCBF6"/>
        </linearGradient>
        <linearGradient id="b" x1="50%" x2="50%" y1="100%" y2="0%">
            <stop offset="0%" stop-color="#ECF1FF"/>
            <stop offset="100%" stop-color="#3C68F0"/>
        </linearGradient>
    </defs>
    <g fill="none" fill-rule="evenodd" transform="translate(0 20)">
        <rect width="21.639" height="21.639" x="32.459" y="7.869" fill="url(#a)" opacity=".8" rx="10.82"/>
        <rect width="5.902" height="5.902" x=".984" y="13.77" fill="url(#b)" opacity=".8" rx="2.951"/>
        <rect width="5.902" height="5.902" x="10.82" y="9.836" fill="url(#b)" opacity=".8" rx="2.951"/>
        <rect width="5.902" height="5.902" x="30.492" fill="url(#b)" opacity=".8" rx="2.951"/>
        <path fill="#000" fill-rule="nonzero" d="M32.846 7.066a3.544 3.544 0 0 0 3.547-3.533A3.544 3.544 0 0 0 32.846 0 3.544 3.544 0 0 0 29.3 3.533c0 .795.266 1.53.713 2.122l-5.828 8.11a3.546 3.546 0 0 0-3.518.773l-3.885-2.196c.052-.24.08-.488.08-.743a3.544 3.544 0 0 0-3.548-3.532 3.544 3.544 0 0 0-3.547 3.532c0 .255.028.504.08.743l-3.885 2.196a3.54 3.54 0 0 0-2.414-.948A3.544 3.544 0 0 0 0 17.123a3.544 3.544 0 0 0 3.547 3.533 3.544 3.544 0 0 0 3.547-3.533c0-.255-.028-.504-.08-.743l3.885-2.196a3.54 3.54 0 0 0 2.414.948c.933 0 1.781-.36 2.415-.947l3.884 2.195c-.051.24-.08.488-.08.743a3.544 3.544 0 0 0 3.548 3.533 3.544 3.544 0 0 0 3.547-3.533c0-.796-.266-1.53-.713-2.122l5.828-8.111a3.55 3.55 0 0 0 1.104.176zm0-4.946c.783 0 1.42.634 1.42 1.413 0 .78-.637 1.413-1.42 1.413a1.418 1.418 0 0 1-1.418-1.413c0-.78.636-1.413 1.418-1.413zm-29.3 16.416a1.418 1.418 0 0 1-1.418-1.414c0-.779.636-1.413 1.419-1.413.782 0 1.418.634 1.418 1.413 0 .78-.636 1.414-1.418 1.414zm9.767-5.523a1.418 1.418 0 0 1-1.419-1.414c0-.779.637-1.413 1.42-1.413.782 0 1.418.634 1.418 1.413 0 .78-.636 1.414-1.419 1.414zm9.767 5.523a1.418 1.418 0 0 1-1.419-1.414c0-.779.636-1.413 1.419-1.413.782 0 1.419.634 1.419 1.413 0 .78-.637 1.414-1.42 1.414zM1.958 26.557c-.538 0-.974.488-.974 1.09v9.624c0 .602.436 1.09.974 1.09h3.953c.538 0 .974-.488.974-1.09v-9.624c0-.602-.436-1.09-.974-1.09H1.958zm2.979 9.625H2.932v-7.446h2.005v7.446z"/>
        <path fill="#000" fill-rule="nonzero" d="M11.794 20.656c-.538 0-.974.497-.974 1.11V37.25c0 .614.436 1.11.974 1.11h3.953c.538 0 .974-.496.974-1.11V21.766c0-.613-.436-1.11-.974-1.11h-3.953zm2.979 15.484h-2.004V22.876h2.004V36.14zM21.63 26.557c-.538 0-.974.488-.974 1.09v9.624c0 .602.436 1.09.974 1.09h3.953c.538 0 .974-.488.974-1.09v-9.624c0-.602-.436-1.09-.974-1.09H21.63zm2.979 9.625h-2.005v-7.446h2.005v7.446zM31.466 30.492c-.538 0-.974.462-.974 1.032v4.82c0 .57.436 1.033.974 1.033h3.953c.538 0 .974-.462.974-1.032 0-.57-.436-1.033-.974-1.033h-2.978v-3.788c0-.57-.437-1.032-.975-1.032zM58.824 33.51l-7.795-6.587a11.1 11.1 0 0 0 .992-5.47c-.22-3.047-1.646-5.83-4.018-7.833-4.896-4.137-12.342-3.631-16.598 1.128-4.256 4.759-3.735 11.997 1.16 16.134 2.373 2.004 5.405 2.99 8.54 2.777a12.128 12.128 0 0 0 3.03-.596c.844-.283 1.65-.659 2.405-1.12l7.794 6.587a3.499 3.499 0 0 0 3.364.632 3.41 3.41 0 0 0 1.463-.96 3.266 3.266 0 0 0-.337-4.693zM40.98 31.912c-2.656.18-5.224-.655-7.233-2.352-4.147-3.504-4.588-9.634-.983-13.665a9.923 9.923 0 0 1 4.261-2.797c3.259-1.09 7.014-.51 9.797 1.842 2.009 1.697 3.217 4.053 3.403 6.634.186 2.581-.674 5.078-2.42 7.03-1.746 1.953-4.17 3.128-6.825 3.308zm16.823 5.14a1.656 1.656 0 0 1-2.288.156l-7.498-6.337a11.622 11.622 0 0 0 2.126-2.38l7.5 6.338a1.548 1.548 0 0 1 .16 2.224z"/>
        <path fill="#000" fill-rule="nonzero" d="M49.176 21.879a8.33 8.33 0 0 0-2.36-5.57.88.88 0 0 0-1.261 1.227 6.574 6.574 0 0 1 1.861 4.397A6.577 6.577 0 0 1 45.8 26.46a6.556 6.556 0 0 1-4.52 2.253 6.557 6.557 0 0 1-4.79-1.602 6.605 6.605 0 0 1-.65-9.308 6.59 6.59 0 0 1 7.035-1.943.88.88 0 1 0 .548-1.674 8.348 8.348 0 0 0-8.913 2.462 8.303 8.303 0 0 0-2.03 6.067 8.303 8.303 0 0 0 2.855 5.725 8.307 8.307 0 0 0 6.068 2.03 8.311 8.311 0 0 0 5.726-2.855 8.33 8.33 0 0 0 2.047-5.737z"/>
    </g>
</svg>
