<svg xmlns="http://www.w3.org/2000/svg" width="60" height="60" viewBox="0 0 60 60">
    <g fill="none" fill-rule="evenodd">
        <path fill="#E0E7FF" d="M16 56H8v-8.362c0-.352.393-.638.877-.638h6.246c.484 0 .877.286.877.638V56zM29 56h-8V39.646c0-.356.393-.646.877-.646h6.246c.484 0 .877.29.877.646V56zM43 56h-8V26.635c0-.35.393-.635.877-.635h6.246c.484 0 .877.285.877.635V56z"/>
        <path fill="#000" fill-rule="nonzero" d="M42.175 56.358h-1.81v-26.15A2.215 2.215 0 0 0 38.147 28h-4.045c-1.223 0-2.218.99-2.218 2.207v26.15H27.29V42.057a2.215 2.215 0 0 0-2.218-2.208h-4.045c-1.223 0-2.218.99-2.218 2.208v14.302h-4.595V48.95a2.215 2.215 0 0 0-2.218-2.208H7.95c-1.223 0-2.218.99-2.218 2.208v7.407H3.825a.823.823 0 0 0-.825.82c0 .454.37.822.825.822h38.35a.823.823 0 0 0 .825-.821.823.823 0 0 0-.825-.821zm-29.612 0h-5.18V48.95c0-.312.254-.565.567-.565h4.045c.313 0 .568.253.568.565v7.407zm13.076 0h-5.18V42.056c0-.312.254-.566.567-.566h4.045c.313 0 .568.254.568.566v14.302zm13.076 0h-5.18v-26.15c0-.312.254-.566.567-.566h4.045c.313 0 .568.254.568.565v26.15zM35.998 19.869a.813.813 0 0 0-.245-.627.852.852 0 0 0-.641-.24l-.04-.002h-5.11a.835.835 0 0 0-.844.826c0 .456.378.826.844.826h3.155l-8.348 8.167-3.148-3.08a.854.854 0 0 0-1.194 0L5.247 40.59a.814.814 0 0 0 0 1.17.852.852 0 0 0 .597.241c.216 0 .433-.08.597-.242l14.583-14.267 3.148 3.08a.858.858 0 0 0 1.194 0l8.945-8.75v2.793c0 .456.378.826.845.826.466 0 .844-.37.844-.826v-4.705l-.002-.04z"/>
    </g>
</svg>
