<svg xmlns="http://www.w3.org/2000/svg" width="60" height="60" viewBox="0 0 60 60">
    <defs>
        <linearGradient id="a" x1="50%" x2="50%" y1="100%" y2="0%">
            <stop offset="0%" stop-color="#D2DFFF"/>
            <stop offset="99.208%" stop-color="#ADBDEE"/>
        </linearGradient>
    </defs>
    <g fill="none" fill-rule="evenodd">
        <path fill="url(#a)" d="M52.213 12a.767.767 0 0 1-.371-.096L49 10.344l-2.841 1.56a.771.771 0 0 1-.842-.064.845.845 0 0 1-.32-.817l.543-3.303-2.298-2.341a.857.857 0 0 1-.203-.856.807.807 0 0 1 .647-.57l3.176-.48 1.42-3.007A.793.793 0 0 1 49 0c.302 0 .584.183.718.466l1.42 3.007 3.176.48a.807.807 0 0 1 .646.57.855.855 0 0 1-.203.856l-2.297 2.34.542 3.304a.846.846 0 0 1-.318.817.775.775 0 0 1-.47.16M19.786 47a.771.771 0 0 1-.471-.16.846.846 0 0 1-.318-.818l.542-3.303-2.299-2.34a.866.866 0 0 1-.203-.856.808.808 0 0 1 .647-.57l3.177-.48 1.42-3.007A.805.805 0 0 1 23 35c.307 0 .582.179.717.466l1.421 3.007 3.177.48a.808.808 0 0 1 .646.57c.094.3.014.636-.203.856l-2.298 2.34.542 3.303a.846.846 0 0 1-.318.817.769.769 0 0 1-.843.064L23 45.344l-2.841 1.56a.775.775 0 0 1-.372.096m19.426-18a.781.781 0 0 1-.372-.096l-2.842-1.56-2.84 1.56a.78.78 0 0 1-.843-.065.847.847 0 0 1-.318-.816l.542-3.305-2.298-2.339a.857.857 0 0 1-.202-.856.803.803 0 0 1 .646-.569l3.176-.482 1.42-3.006A.801.801 0 0 1 36 17c.307 0 .582.179.718.466l1.42 3.006 3.177.482a.815.815 0 0 1 .646.57.855.855 0 0 1-.202.855l-2.299 2.34.543 3.304a.844.844 0 0 1-.319.816.767.767 0 0 1-.47.161m-13 0a.785.785 0 0 1-.372-.096L23 27.344l-2.84 1.56a.77.77 0 0 1-.843-.065.845.845 0 0 1-.318-.816l.542-3.304-2.299-2.34a.857.857 0 0 1-.203-.856.804.804 0 0 1 .647-.569l3.177-.482 1.42-3.006A.803.803 0 0 1 23 17c.307 0 .582.179.718.466l1.42 3.006 3.176.482a.804.804 0 0 1 .647.57.857.857 0 0 1-.203.855l-2.299 2.34.542 3.304a.845.845 0 0 1-.317.816.769.769 0 0 1-.47.161m6.572-17a.775.775 0 0 1-.47-.16.847.847 0 0 1-.319-.816l.543-3.305-2.3-2.34a.869.869 0 0 1-.201-.856.805.805 0 0 1 .646-.57l3.177-.48 1.42-3.007A.801.801 0 0 1 36 0c.306 0 .582.179.717.466l1.421 3.007 3.177.48a.807.807 0 0 1 .646.57.87.87 0 0 1-.202.857L39.46 7.719l.543 3.304a.845.845 0 0 1-.32.817.771.771 0 0 1-.841.064L36 10.344l-2.842 1.56a.772.772 0 0 1-.372.096m-13 0a.775.775 0 0 1-.47-.16.847.847 0 0 1-.318-.817l.542-3.304-2.299-2.34a.87.87 0 0 1-.203-.856.807.807 0 0 1 .647-.57l3.177-.48 1.42-3.007A.803.803 0 0 1 23 0c.302 0 .583.183.717.466l1.421 3.007 3.177.48a.807.807 0 0 1 .646.57c.094.3.014.636-.203.857L26.46 7.72l.542 3.303a.847.847 0 0 1-.318.817.773.773 0 0 1-.842.064L23 10.344l-2.841 1.56a.778.778 0 0 1-.373.096" transform="translate(2 8)"/>
        <path fill="#000" d="M8.6 13.39c-.765 0-1.387.621-1.387 1.385a1.387 1.387 0 0 0 2.773 0c0-.764-.621-1.385-1.386-1.385zm0 4.457a3.077 3.077 0 0 1-3.075-3.072A3.077 3.077 0 0 1 8.6 11.703a3.077 3.077 0 0 1 3.074 3.072A3.077 3.077 0 0 1 8.6 17.847zm.519 21.812a.837.837 0 0 0 .46-.452.867.867 0 0 0-.009-.682.841.841 0 0 0-1.1-.465c-.43.173-.639.666-.449 1.134a.839.839 0 0 0 1.098.465zm41.554-23.017a.85.85 0 0 1 .393.098l1.875.984-.359-2.086a.841.841 0 0 1 .244-.747l1.516-1.478-2.097-.304a.847.847 0 0 1-.635-.462l-.937-1.9-.938 1.9a.846.846 0 0 1-.635.462l-2.097.304 1.517 1.478c.199.194.29.473.243.747l-.359 2.086 1.876-.984a.844.844 0 0 1 .393-.098zm3.388 3.468a.848.848 0 0 1-.392-.097l-2.996-1.574-2.996 1.573a.843.843 0 0 1-1.224-.888l.572-3.334-2.424-2.362a.838.838 0 0 1-.213-.865c.099-.306.36-.527.68-.573l3.35-.486 1.499-3.034a.84.84 0 0 1 .756-.47c.319 0 .616.185.756.47l1.499 3.034 3.349.486c.32.046.581.267.681.573a.84.84 0 0 1-.214.865L54.32 15.79l.572 3.334a.841.841 0 0 1-.831.986zM22.695 49.188a.844.844 0 0 1-.635.46l-2.097.305 1.517 1.478c.199.194.29.473.242.746l-.357 2.088 1.875-.985a.849.849 0 0 1 .786 0l1.874.985-.357-2.088a.84.84 0 0 1 .242-.746l1.518-1.478-2.097-.304a.846.846 0 0 1-.636-.461l-.937-1.9-.938 1.9zm-2.45 7.462a.837.837 0 0 1-.497-.162.837.837 0 0 1-.335-.824l.571-3.334-2.423-2.362a.847.847 0 0 1-.214-.864.84.84 0 0 1 .681-.574l3.35-.486 1.498-3.034a.849.849 0 0 1 .757-.47.84.84 0 0 1 .757.47l1.497 3.034 3.35.486a.842.842 0 0 1 .468 1.438L27.28 52.33l.572 3.334a.842.842 0 0 1-1.224.89l-2.996-1.575-2.997 1.574a.853.853 0 0 1-.392.097zm16.908-22.331c.136 0 .272.033.393.097l1.874.986-.357-2.088a.841.841 0 0 1 .243-.747l1.516-1.477-2.097-.305a.848.848 0 0 1-.635-.461l-.937-1.9-.938 1.9a.848.848 0 0 1-.635.46l-2.098.306L35 32.567c.199.194.289.473.242.747l-.358 2.088 1.876-.986a.849.849 0 0 1 .393-.097zm3.388 3.467a.846.846 0 0 1-.393-.097l-2.995-1.575-2.997 1.575a.843.843 0 0 1-1.223-.889l.572-3.335-2.424-2.361a.838.838 0 0 1-.214-.864.84.84 0 0 1 .681-.574l3.35-.486 1.498-3.034a.85.85 0 0 1 .757-.47c.323 0 .613.18.756.47l1.499 3.034 3.35.486a.849.849 0 0 1 .68.574c.1.307.018.638-.213.864L40.8 33.465l.572 3.335a.837.837 0 0 1-.336.824.84.84 0 0 1-.496.162zm-17.846-7.462a.844.844 0 0 1-.636.46l-2.096.306 1.517 1.477c.199.194.29.473.242.747l-.357 2.088 1.875-.986a.849.849 0 0 1 .786 0l1.874.985-.357-2.087a.84.84 0 0 1 .242-.747l1.517-1.477-2.097-.305a.845.845 0 0 1-.635-.461l-.937-1.899-.938 1.899zm4.326 7.462a.846.846 0 0 1-.392-.097l-2.996-1.575-2.997 1.575a.843.843 0 0 1-1.223-.89l.571-3.334-2.423-2.361a.838.838 0 0 1-.214-.864.84.84 0 0 1 .681-.574l3.35-.486 1.498-3.034a.849.849 0 0 1 .757-.47c.323 0 .613.18.757.47l1.497 3.034 3.35.486a.842.842 0 0 1 .467 1.438l-2.423 2.361.572 3.335a.842.842 0 0 1-.832.986zm10.132-21.144a.85.85 0 0 1 .393.098l1.874.984-.357-2.086a.84.84 0 0 1 .243-.747l1.516-1.478-2.097-.304a.847.847 0 0 1-.635-.462l-.937-1.9-.938 1.9a.846.846 0 0 1-.635.462l-2.097.304L35 14.891c.199.194.289.473.242.747l-.358 2.086 1.876-.984a.85.85 0 0 1 .393-.098zm-3.389 3.468a.841.841 0 0 1-.831-.986l.572-3.334-2.424-2.362a.85.85 0 0 1-.214-.864.839.839 0 0 1 .681-.574l3.35-.486 1.498-3.034a.85.85 0 0 1 .757-.47.84.84 0 0 1 .756.47l1.499 3.034 3.35.486c.32.046.58.267.68.574a.847.847 0 0 1-.213.864L40.8 15.79l.572 3.334a.837.837 0 0 1-.336.824.84.84 0 0 1-.888.065l-2.996-1.574-2.997 1.573a.844.844 0 0 1-.392.098zm-11.07-7.463a.845.845 0 0 1-.634.462l-2.097.304 1.517 1.478c.199.194.29.473.242.747l-.357 2.086 1.875-.984a.844.844 0 0 1 .785 0l1.875.984-.357-2.086a.84.84 0 0 1 .242-.747l1.518-1.478-2.097-.304a.847.847 0 0 1-.636-.462l-.937-1.9-.938 1.9zm-2.45 7.463a.842.842 0 0 1-.831-.986l.571-3.334-2.423-2.362a.85.85 0 0 1-.214-.864.839.839 0 0 1 .681-.574l3.35-.486 1.498-3.034a.85.85 0 0 1 .757-.47.85.85 0 0 1 .757.47l1.497 3.034 3.35.486a.84.84 0 0 1 .467 1.438L27.28 15.79l.572 3.334a.842.842 0 0 1-1.224.89l-2.996-1.575-2.997 1.573a.844.844 0 0 1-.392.098zM8.362 46.5a4.915 4.915 0 0 0-4.669 5.137 4.903 4.903 0 0 0 5.142 4.67 4.884 4.884 0 0 0 3.4-1.603 4.878 4.878 0 0 0 1.27-3.536 4.881 4.881 0 0 0-1.603-3.399 4.9 4.9 0 0 0-3.54-1.269zM8.595 58a6.588 6.588 0 0 1-6.587-6.28 6.546 6.546 0 0 1 1.71-4.748 6.55 6.55 0 0 1 4.893-2.164c1.637 0 3.21.61 4.427 1.714a6.558 6.558 0 0 1 2.154 4.567 6.55 6.55 0 0 1-1.708 4.75A6.56 6.56 0 0 1 8.595 58zM5.437 37.994a.837.837 0 0 0 .209-.612.834.834 0 0 0-.285-.578 4.893 4.893 0 0 1-1.668-3.456 4.879 4.879 0 0 1 1.27-3.537 4.888 4.888 0 0 1 3.642-1.607c1.22 0 2.392.452 3.297 1.275a4.876 4.876 0 0 1 1.604 3.398 4.863 4.863 0 0 1-1.382 3.654.843.843 0 1 0 1.212 1.175 6.619 6.619 0 0 0 1.856-4.91 6.549 6.549 0 0 0-2.154-4.565 6.574 6.574 0 0 0-4.754-1.706 6.56 6.56 0 0 0-4.569 2.152 6.55 6.55 0 0 0-1.707 4.752 6.57 6.57 0 0 0 2.239 4.64.845.845 0 0 0 1.19-.075zM8.366 9.872a4.915 4.915 0 0 0-4.673 5.138 4.904 4.904 0 0 0 5.142 4.669 4.879 4.879 0 0 0 3.398-1.605 4.874 4.874 0 0 0 1.273-3.534 4.904 4.904 0 0 0-5.14-4.668zm.23 11.499a6.588 6.588 0 0 1-6.588-6.28c-.175-3.632 2.64-6.73 6.276-6.904a6.589 6.589 0 0 1 6.908 6.272 6.547 6.547 0 0 1-1.71 4.75 6.557 6.557 0 0 1-4.886 2.162z"/>
    </g>
</svg>
