<svg xmlns="http://www.w3.org/2000/svg" xmlns:xlink="http://www.w3.org/1999/xlink" width="280" height="80" viewBox="0 0 280 80">
    <defs>
        <path id="a" d="M261.174 36.782v-8.258h3.235v-7.739h9.99v7.74H280v8.257h-5.601v18.306h-9.99V36.782h-3.235zM227.68 12.354h9.99v19.577c1.33-2.194 3.639-3.927 8.259-3.927 7.623 0 11.722 3.927 11.722 11.03v16.054h-9.99V41.286c0-3.233-.923-5.486-4.562-5.486-3.349 0-5.428 3.292-5.428 5.37v13.918h-9.99V12.354zm-19.865 34.823c3.002 0 5.485-2.483 5.485-5.487 0-3.002-2.483-5.485-5.485-5.485-3.003 0-5.486 2.483-5.486 5.485 0 3.004 2.483 5.487 5.486 5.487zm-2.079 8.027c-8.893 0-13.282-6.757-13.282-13.514 0-6.756 4.39-13.513 13.282-13.513 4.62 0 6.295 1.04 7.911 2.08v-1.733h8.836V54.28c0 7.276-4.504 12.589-15.419 12.589-10.51 0-13.975-5.254-14.495-9.528h9.528c.52 1.328 2.137 2.425 5.718 2.425 4.1 0 5.832-1.964 5.832-4.908v-1.906c-1.56 1.328-3.522 2.252-7.91 2.252zm-27.834-.116h9.99V28.523h-9.99v26.565zm4.966-31.126c-2.946 0-5.372-2.426-5.372-5.37 0-2.946 2.426-5.372 5.372-5.372 2.944 0 5.37 2.426 5.37 5.371 0 2.945-2.426 5.37-5.37 5.37zm-16.862 10.51c-1.848 0-2.6.693-2.6 1.617 0 .866.81 1.444 3.004 1.79 5.37.866 8.085 4.563 8.085 8.374 0 5.602-3.984 9.53-11.954 9.53-4.91 0-8.49-1.792-10.974-3.64l3.294-5.486c1.558 1.098 4.33 2.599 6.986 2.599 1.849 0 2.945-.52 2.945-1.675 0-1.154-.98-2.021-3.522-2.426-5.718-.866-8.084-3.58-8.084-7.622 0-6.295 5.774-9.413 11.318-9.413 4.734 0 6.41.75 9.01 1.848l-2.37 6.005c-1.327-.75-2.77-1.5-5.138-1.5zm-45.68-5.948h9.934v2.426c1.27-1.27 3.407-2.888 8.547-2.888 7.16 0 10.452 3.753 10.452 10.394v16.632h-9.932V40.593c0-3.233-.579-5.659-4.217-5.659-4.042 0-4.85 2.714-4.85 4.678v15.476h-9.933V28.524zm-17.958 18.767c3.119 0 5.487-2.482 5.487-5.485s-2.368-5.486-5.487-5.486c-3.003 0-5.486 2.483-5.486 5.486 0 3.003 2.483 5.485 5.486 5.485zm.057 8.548c-9.758 0-14.668-6.988-14.668-14.09 0-6.989 4.91-14.092 14.668-14.092 9.761 0 14.496 7.103 14.496 14.091 0 7.103-4.735 14.09-14.496 14.09zM31.373 52.43l-7.704 8.07V26.365l7.704-8.071V52.43zm1.862.746V16.343L45.032 3.984A36.832 36.832 0 0 0 36.612 3c-1.14 0-2.265.06-3.377.16v10.486l-1.862 1.95V3.38a36.381 36.381 0 0 0-4.97 1.075L5.49 26.364V58.89a36.785 36.785 0 0 0 9.753 10.441l6.566-6.88v2.697l-5.007 5.246a36.536 36.536 0 0 0 6.868 3.469V63.198l9.05-9.482.516-.54zm16.32-.746l-7.705 8.07V26.365l7.705-8.071V52.43zm18.18-32.098A36.793 36.793 0 0 0 57.738 9.72l-6.323 6.624v-2.697l4.754-4.98a36.49 36.49 0 0 0-4.754-2.539 36.343 36.343 0 0 0-1.86-.766v10.236l-9.05 9.48-.515.54v36.835l-12.133 12.71c.705.173 1.42.323 2.14.454 2.146.392 4.354.607 6.615.607 1.14 0 2.265-.059 3.378-.16V65.148l1.86-1.95v12.646a36.477 36.477 0 0 0 4.41-.914l21.475-22.499V20.333zm1.861 3.374v29.47l-.514.539-19.05 19.958c13.577-5.354 23.192-18.58 23.192-34.062 0-5.7-1.304-11.096-3.628-15.905zM0 39.612c0 5.7 1.304 11.095 3.628 15.905v-29.9l.514-.54L22.537 5.809C9.304 11.325 0 24.38 0 39.612z"/>
    </defs>
    <g fill="none" fill-rule="evenodd">
        <mask id="b" fill="#fff">
            <use xlink:href="#a"/>
        </mask>
        <use fill="#ffffff" xlink:href="#a"/>
        <g fill="#ffffff" mask="url(#b)">
            <path d="M0 0h280v80H0z"/>
        </g>
    </g>
</svg>
