<svg xmlns="http://www.w3.org/2000/svg" width="50" height="50" viewBox="0 0 50 50">
    <defs>
        <linearGradient id="a" x1="50%" x2="50%" y1="100%" y2="0%">
            <stop offset="0%" stop-color="#ECF1FF"/>
            <stop offset="100%" stop-color="#BDCBF6"/>
        </linearGradient>
    </defs>
    <g fill="none" fill-rule="evenodd">
        <path fill="url(#a)" d="M0 8.58L19.858 0 39 8.58v11.076l-39-.925z" transform="translate(5 7)"/>
        <path stroke="#2C2E30" stroke-width="2.5" d="M5 16.25L24.5 7 44 16.25"/>
        <path stroke="#2C2E30" stroke-linecap="square" stroke-width="2.5" d="M21.25 41.981a3.375 3.375 0 0 0-1.332-2.695c-1.306-.996-3.57-2.224-6.793-2.224-3.223 0-5.487 1.228-6.793 2.224A3.375 3.375 0 0 0 5 41.981V44h16.25v-2.019zM16.917 26.761c0 2.612-1.94 5.677-4.334 5.677-2.393 0-4.333-3.065-4.333-5.677 0-2.612 1.94-4.73 4.333-4.73 2.393 0 4.334 2.118 4.334 4.73zM44 41.981a3.375 3.375 0 0 0-1.333-2.695c-1.305-.996-3.57-2.224-6.792-2.224-3.223 0-5.487 1.228-6.793 2.224a3.375 3.375 0 0 0-1.332 2.695V44H44v-2.019zM40.75 26.761c0 2.612-1.94 5.677-4.333 5.677-2.393 0-4.334-3.065-4.334-5.677 0-2.612 1.94-4.73 4.334-4.73 2.393 0 4.333 2.118 4.333 4.73z"/>
    </g>
</svg>
