<svg xmlns="http://www.w3.org/2000/svg" width="71" height="70" viewBox="0 0 71 70">
    <defs>
        <linearGradient id="a" x1="50%" x2="50%" y1="100%" y2="0%">
            <stop offset="0%" stop-color="#ECF1FF"/>
            <stop offset="100%" stop-color="#BDCBF6"/>
        </linearGradient>
    </defs>
    <g fill="none" fill-rule="evenodd">
        <path fill="url(#a)" d="M24.986 0A27.894 27.894 0 0 1 25 0c12.993.565 23 10.085 23 22.136 0 6.062-2.545 14.475-6.483 21.432-.695 1.228-1.644 2.578-2.65 4.009-2.274 3.236-4.802 6.86-5.298 10.423H16.422c-.495-3.563-3.022-7.187-5.295-10.423-1.005-1.43-1.953-2.781-2.648-4.01C4.543 36.612 2 28.199 2 22.138 2 10.084 12 .564 24.986 0V0zm-.008 44.55a.21.21 0 0 0 .014.05.146.146 0 0 0-.014-.05zM25 20v14h10V20H25z" transform="translate(10.5 2)"/>
        <path fill="#000" fill-rule="nonzero" d="M59.39 30.982a3.335 3.335 0 0 0-3.147-2.221 3.336 3.336 0 0 0-3.135 2.233H46.22v-4.467h4.454c.615 0 1.114-.5 1.114-1.116v-4.673a3.353 3.353 0 0 0 2.036-4.275 3.339 3.339 0 0 0-4.263-2.042 3.352 3.352 0 0 0 0 6.317v3.556H46.22v-2.233c0-.617-.498-1.117-1.113-1.117H42.88v-5.79a3.353 3.353 0 0 0 2.036-4.274 3.339 3.339 0 0 0-4.263-2.042 3.353 3.353 0 0 0 0 6.317v5.79h-4.455V3.116C36.198 2.5 35.7 2 35.085 2c-13.738 0-24.5 9.974-24.5 22.705 0 6.048 2.394 14.056 6.25 20.896.691 1.228 1.595 2.52 2.55 3.887 2.022 2.889 4.271 6.138 4.516 8.966a3.177 3.177 0 0 0-1.338 2.65c.003.756.263 1.487.737 2.074a3.448 3.448 0 0 0-1.022 2.472A3.349 3.349 0 0 0 25.62 69h18.932a3.367 3.367 0 0 0 3.34-3.392v-.037c0-.908-.37-1.776-1.025-2.405.48-.61.741-1.363.74-2.14a3.198 3.198 0 0 0-3.34-3.193h-8.068V36.577h2.228v3.35c0 .617.498 1.117 1.113 1.117h3.341v1.322a3.352 3.352 0 0 0-2.036 4.275 3.338 3.338 0 0 0 4.263 2.042 3.352 3.352 0 0 0 0-6.317v-2.439c0-.616-.498-1.116-1.113-1.116h-3.341v-2.234h4.454c.615 0 1.114-.5 1.114-1.116v-2.234h6.887a3.333 3.333 0 0 0 4.26 2.028 3.346 3.346 0 0 0 2.023-4.273zm-8.715-14.505c.615 0 1.114.5 1.114 1.117s-.499 1.117-1.114 1.117a1.116 1.116 0 1 1 0-2.233zM21.21 48.205c-.924-1.321-1.797-2.569-2.436-3.703-3.62-6.426-5.96-14.197-5.96-19.797 0-11.136 9.206-19.932 21.158-20.448v7.801c-.295.023-.597.05-.92.09-.473.057-.856.41-.955.877l-.339 1.618c-.28.067-.558.142-.836.226l-1.11-1.241a1.11 1.11 0 0 0-1.266-.282 16.747 16.747 0 0 0-3.503 2.05c-.38.288-.537.787-.388 1.24l.511 1.562c-.21.199-.415.405-.614.615l-1.556-.512a1.119 1.119 0 0 0-1.236.388 16.77 16.77 0 0 0-2.047 3.515c-.187.44-.074.95.281 1.27l1.238 1.111c-.083.276-.157.553-.223.83l-1.732.347c-.52.104-.895.562-.895 1.095v3.808c0 .532.375.99.895 1.095l1.732.346c.066.277.14.554.224.83l-1.24 1.112a1.12 1.12 0 0 0-.28 1.27 16.78 16.78 0 0 0 2.047 3.515c.287.38.784.535 1.236.388l1.556-.513c.199.21.403.417.614.615l-.511 1.56a1.12 1.12 0 0 0 .387 1.24 16.708 16.708 0 0 0 3.504 2.053c.439.187.948.073 1.266-.282l1.11-1.241c.278.084.557.159.836.225l.34 1.617c.097.468.48.822.954.88.323.039.625.066.92.088v12.37h-7.89c-.456-3.29-2.78-6.638-4.872-9.628zm3.853-19.444c.007 5.115 3.84 9.41 8.91 9.984v3.84l-.185-.88a1.115 1.115 0 0 0-.892-.87 12.04 12.04 0 0 1-1.94-.524 1.111 1.111 0 0 0-1.206.306L28.7 41.79c-.58-.291-1.14-.62-1.676-.987l.483-1.475a1.12 1.12 0 0 0-.339-1.202c-.513-.436-.99-.914-1.425-1.429a1.118 1.118 0 0 0-1.197-.338l-1.47.486c-.366-.538-.695-1.1-.985-1.682l1.169-1.05a1.12 1.12 0 0 0 .305-1.21 12.191 12.191 0 0 1-.523-1.945 1.115 1.115 0 0 0-.878-.896l-1.557-.312v-1.976l1.557-.312c.448-.09.797-.445.878-.896.12-.663.295-1.314.523-1.947a1.12 1.12 0 0 0-.306-1.21l-1.168-1.049c.29-.581.62-1.143.984-1.681l1.472.485c.43.14.902.007 1.197-.338.436-.515.913-.994 1.426-1.432.345-.293.478-.767.337-1.198l-.483-1.476a14.515 14.515 0 0 1 1.676-.986l1.047 1.17c.303.339.78.46 1.206.307a12.01 12.01 0 0 1 1.94-.524c.447-.08.8-.424.893-.87l.184-.878v3.839c-5.069.573-8.902 4.869-8.909 9.984zm8.91-7.728v15.455c-4.257-.61-7.213-4.566-6.604-8.834a7.796 7.796 0 0 1 6.603-6.62zM45.663 65.65c0 .616-.499 1.116-1.113 1.117H25.619a1.136 1.136 0 0 1-1.114-1.196c.001-.616.5-1.116 1.114-1.116h18.932a1.136 1.136 0 0 1 1.113 1.195zm-1.398-5.583a1.02 1.02 0 0 1 1.113 1.038c0 .616-.499 1.116-1.113 1.116H25.904a1.136 1.136 0 0 1-1.114-1.195 1.007 1.007 0 0 1 1.114-.96h18.362zm-.272-15.673c.615 0 1.113.5 1.113 1.117 0 .616-.498 1.116-1.113 1.116s-1.114-.5-1.114-1.116c0-.617.499-1.116 1.114-1.117zm-2.228-33.5c.615 0 1.114.5 1.114 1.117 0 .616-.499 1.116-1.114 1.116a1.116 1.116 0 0 1 0-2.233zm2.228 23.45h-7.796V23.177h7.796v11.167zm12.25-1.117c-.615 0-1.114-.5-1.114-1.116 0-.617.499-1.117 1.113-1.117a1.116 1.116 0 1 1 0 2.233z"/>
        <path fill="#000" fill-rule="nonzero" d="M45.629 53l1.956 1.078c-.348.62-.656 1.262-.922 1.922l-2.078-.821c.301-.748.65-1.476 1.044-2.179zm2.198-4l1.758 1.222A65.756 65.756 0 0 0 48.383 52l-1.798-1.162c.402-.62.822-1.234 1.242-1.838zm2.945-4l1.813 1.141A48.724 48.724 0 0 1 51.345 48l-1.76-1.223c.422-.61.825-1.203 1.187-1.777zm1.81-4l2.003.95c-.332.692-.68 1.375-1.043 2.05l-1.957-1.04c.347-.646.68-1.3.998-1.96zm1.855-4l2.148.8a56.056 56.056 0 0 1-.887 2.2l-2.113-.892c.3-.7.585-1.404.852-2.108zm5.147-12l.001.187c0 .578-.027 1.188-.081 1.813l-1.919-.158c.05-.573.075-1.13.075-1.655l-.001-.172L59.584 25zm-.48-5c.21.89.371 1.79.481 2.698L57.016 23a21.802 21.802 0 0 0-.43-2.42l2.518-.58zm-1.468-5c.358.73.675 1.478.95 2.242l-2.15.758a19.707 19.707 0 0 0-.85-2.01l2.05-.99zm-2.378-4c.475.597.918 1.218 1.327 1.862L54.78 14a19.386 19.386 0 0 0-1.195-1.675L55.258 11zm-3.332-3c.579.48 1.132.987 1.66 1.523L52.084 11a19.877 19.877 0 0 0-1.5-1.377L51.926 8zm-4.314-3c.678.369 1.342.772 1.973 1.198L48.38 8a21.73 21.73 0 0 0-1.795-1.09L47.612 5zm-4.33-2c.786.252 1.561.54 2.303.86l-.9 2.14a23.526 23.526 0 0 0-2.1-.783L43.283 3zm-5.37-1c.898.119 1.798.278 2.673.474L40.033 5a27.156 27.156 0 0 0-2.448-.433L37.912 2z"/>
    </g>
</svg>
