<svg xmlns="http://www.w3.org/2000/svg" width="70" height="70" viewBox="0 0 70 70">
    <defs>
        <linearGradient id="a" x1="50%" x2="50%" y1="100%" y2="0%">
            <stop offset="0%" stop-color="#ECF1FF"/>
            <stop offset="100%" stop-color="#BDCBF6"/>
        </linearGradient>
        <linearGradient id="b" x1="50%" x2="50%" y1="100%" y2="0%">
            <stop offset="0%" stop-color="#ECF1FF"/>
            <stop offset="100%" stop-color="#BDCBF6"/>
        </linearGradient>
    </defs>
    <g fill="none" fill-rule="evenodd">
        <path fill="url(#a)" d="M2 8h51v34a2 2 0 0 1-2 2H4a2 2 0 0 1-2-2V8z" transform="translate(7 7)"/>
        <path fill="url(#b)" d="M2 1h51v6H2z" transform="translate(7 7)"/>
        <path fill="#FFF" fill-rule="nonzero" d="M44.422 43.964c5.131 0 9.37-3.894 9.916-8.882h.778c.604 0 1.093-.49 1.093-1.094 0-6.5-5.288-11.788-11.787-11.788-.604 0-1.094.49-1.094 1.094v.778c-4.988.546-8.883 4.785-8.883 9.916 0 5.501 4.476 9.976 9.977 9.976z"/>
        <path fill="#000" fill-rule="nonzero" d="M44.422 43.964c5.131 0 9.37-3.894 9.916-8.882h.778c.604 0 1.093-.49 1.093-1.094 0-6.5-5.288-11.788-11.787-11.788-.604 0-1.094.49-1.094 1.094v.778c-4.988.546-8.883 4.785-8.883 9.916 0 5.501 4.476 9.976 9.977 9.976zm1.093-19.514a9.618 9.618 0 0 1 8.445 8.444h-8.445V24.45zm-2.187 6.897l-3.584-3.583a7.75 7.75 0 0 1 3.584-1.487v5.07zm-5.13-2.036l5.45 5.45c.198.198.471.32.774.32h7.71c-.533 3.78-3.787 6.696-7.71 6.696-4.295 0-7.79-3.494-7.79-7.79 0-1.753.584-3.373 1.566-4.676zM33.027 27.348H26.04a1.094 1.094 0 1 0 0 2.188h6.986a1.094 1.094 0 1 0 0-2.188zM20.463 24.286h12.564a1.094 1.094 0 1 0 0-2.188H20.463a1.094 1.094 0 1 0 0 2.188zM16.088 24.286c.288 0 .57-.117.773-.32.204-.204.32-.486.32-.774 0-.288-.116-.57-.32-.773a1.102 1.102 0 0 0-.773-.32c-.289 0-.57.116-.774.32-.204.203-.32.485-.32.773 0 .288.116.57.32.773.204.204.485.32.774.32zM14.884 43.964h15.75c.604 0 1.094-.49 1.094-1.093v-5.366c0-.604-.49-1.094-1.094-1.094h-4.156v-2.527c0-.604-.49-1.094-1.094-1.094h-4.156v-1.812c0-.605-.49-1.094-1.094-1.094h-5.25c-.604 0-1.093.49-1.093 1.094V42.87c0 .604.49 1.093 1.093 1.093zm14.657-5.366v3.179h-3.063v-3.179h3.063zm-5.25-3.62v6.799h-3.063v-6.799h3.063zm-8.313-2.907h3.063v9.706h-3.063v-9.706z"/>
        <path fill="#000" fill-rule="nonzero" d="M61.906 7H8.094C7.49 7 7 7.49 7 8.094v6.125c0 .604.49 1.094 1.094 1.094v34.343a3.285 3.285 0 0 0 3.281 3.282h22.531v2.789a3.725 3.725 0 0 0-2.625 3.554A3.723 3.723 0 0 0 35 63a3.723 3.723 0 0 0 3.719-3.719 3.725 3.725 0 0 0-2.625-3.554v-2.79h22.531a3.285 3.285 0 0 0 3.281-3.28V15.312c.604 0 1.094-.49 1.094-1.094V8.094C63 7.49 62.51 7 61.906 7zM35 60.813a1.533 1.533 0 0 1-1.531-1.532c0-.844.687-1.531 1.531-1.531.844 0 1.531.687 1.531 1.531 0 .845-.687 1.532-1.531 1.532zM9.187 9.187h51.626v3.938H9.187V9.187zm50.532 40.47c0 .602-.49 1.093-1.094 1.093h-47.25c-.603 0-1.094-.49-1.094-1.094V15.313H59.72v34.343z"/>
    </g>
</svg>
