<svg xmlns="http://www.w3.org/2000/svg" width="50" height="50" viewBox="0 0 50 50">
    <defs>
        <linearGradient id="a" x1="50%" x2="50%" y1="100%" y2="0%">
            <stop offset="0%" stop-color="#ECF1FF"/>
            <stop offset="100%" stop-color="#BDCBF6"/>
        </linearGradient>
    </defs>
    <g fill="none" fill-rule="evenodd">
        <path fill="url(#a)" d="M6.212.32h10.747a5.667 5.667 0 1 1 0 11.332H6.212V.32zm0 13.393H19.21a8.242 8.242 0 1 1 0 16.485h-13V13.713z" transform="translate(11 8)"/>
        <path fill="#000" fill-rule="nonzero" d="M31.884 22.181c1.439-1.502 2.334-3.598 2.334-5.913 0-4.56-3.468-8.268-7.73-8.268H11v2.656h3.723v28.688H11V42h18.594C34.781 42 39 37.487 39 31.94c0-4.703-3.033-8.662-7.116-9.759zM17.207 10.656h9.281c2.893 0 5.246 2.518 5.246 5.612 0 3.094-2.353 5.61-5.246 5.61h-9.281V10.657zm12.387 28.688H17.207V24.535h12.387c3.817 0 6.923 3.322 6.923 7.404 0 4.083-3.106 7.405-6.923 7.405z"/>
    </g>
</svg>
